<svg width="20" height="20" viewBox="0 0 20 20" fill="none" xmlns="http://www.w3.org/2000/svg">
<path fill-rule="evenodd" clip-rule="evenodd" d="M9.99872 0L20.0007 9.99981V11.414L9.99872 1.41406L3.68804e-07 11.4107L0 9.9965L9.99872 0Z" fill="#F0B385"/>
<path d="M6.26607 9.82141C6.01311 9.82027 5.76277 9.84833 5.5184 9.89816L9.99881 5.4187L14.4792 9.89816C14.2349 9.84833 13.9845 9.82027 13.7316 9.82141C13.1767 9.82392 12.6111 9.96724 12.0829 10.3233C11.558 10.6771 11.0976 11.2222 10.7182 11.9861C10.4347 12.5568 10.1916 13.2592 9.99881 14.1151C9.806 13.2592 9.56293 12.5568 9.27942 11.9861C8.89998 11.2222 8.43968 10.6771 7.91472 10.3233C7.38653 9.96724 6.8209 9.82392 6.26607 9.82141Z" fill="#F0B385" stroke="#F0B385"/>
</svg>
